<svg width="18" height="12" viewBox="0 0 18 12" fill="none" xmlns="http://www.w3.org/2000/svg">
<path d="M8.86587 6.28867L8.86586 6.28864L8.8616 6.29128C8.82421 6.31442 8.76859 6.33178 8.70713 6.33178H8.70341C8.61866 6.33178 8.56114 6.30561 8.5397 6.28897L8.53899 6.28843L1.18212 0.606528H16.2199L9.20577 6.03017L9.20538 6.03047L8.89456 6.27143L8.89428 6.27159L8.89427 6.27157L8.89216 6.27285L8.86587 6.28867ZM10.8891 6.61248L16.301 10.687H1.05677L6.48039 6.58219L7.59349 7.44241L7.5946 7.44326C7.90622 7.68234 8.30189 7.80547 8.70588 7.80547C9.10941 7.80547 9.50531 7.68133 9.81716 7.44158L9.81808 7.44087L10.8891 6.61248ZM5.25831 5.63819L0.4 9.31568V1.88587L5.25831 5.63819ZM16.9632 1.91651V9.32053L12.112 5.66756L16.9632 1.91651Z" fill="white" stroke="white" stroke-width="0.8"/>
</svg>
