<svg width="18" height="17" viewBox="0 0 18 17" fill="none" xmlns="http://www.w3.org/2000/svg">
<path d="M14.3166 15.8816L14.3271 15.8721L16.7719 13.6605C16.7721 13.6603 16.7724 13.6601 16.7726 13.6599C16.8618 13.5784 16.8795 13.5187 16.8737 13.4507C16.8589 13.4031 16.8153 13.3297 16.6645 13.2438L13.2305 11.3949H13.2103L13.0982 11.3336C13.0766 11.3218 13.0043 11.2943 12.8415 11.2943C12.6629 11.2943 12.5209 11.344 12.3952 11.4419L11.3606 12.4015L11.3574 12.4045L11.3574 12.4044C11.2513 12.5011 11.1275 12.5473 11.0466 12.572L11.0463 12.572C10.9905 12.589 10.8874 12.6188 10.7814 12.6188H10.7362L10.6917 12.6106L10.4622 12.5688L10.4618 12.5687L10.5516 12.0768C10.3983 12.049 10.1776 11.9679 9.88946 11.8338C9.6013 11.6997 9.24251 11.4901 8.81343 11.2052L14.3166 15.8816ZM14.3166 15.8816L14.3067 15.8916C14.2497 15.9493 14.1621 16.0117 14.0291 16.0702L14.0288 16.0703C13.8965 16.1285 13.7738 16.1638 13.66 16.1804C13.6251 16.1825 13.5854 16.1861 13.5531 16.1891L13.5504 16.1893C13.5102 16.193 13.447 16.1957 13.3566 16.1957C13.1611 16.1957 12.8138 16.1639 12.2944 16.0914C11.8241 16.0259 11.2249 15.8604 10.4893 15.5825L10.4893 15.5825C9.7707 15.3109 8.9426 14.8983 8.00261 14.3382L8.0026 14.3381C7.08356 13.7905 6.09343 13.0312 5.03227 12.053L5.0323 12.0529L5.02753 12.0486C4.18416 11.2909 3.49307 10.573 2.94998 9.89504C2.39739 9.2052 1.95959 8.5756 1.63226 8.00554L1.63225 8.00552C1.29928 7.42569 1.05644 6.91173 0.897582 6.46184C0.7315 5.99149 0.624174 5.6007 0.569225 5.28517C0.510309 4.94686 0.493393 4.71501 0.502139 4.57151C0.510621 4.43236 0.517103 4.32246 0.51992 4.25743C0.536672 4.16994 0.570709 4.07179 0.628849 3.96202C0.68844 3.84951 0.752843 3.77306 0.816797 3.72059L0.826871 3.71233L0.8365 3.70355L3.2828 1.47382C3.36767 1.39647 3.44543 1.36958 3.53457 1.36958C3.60103 1.36958 3.64212 1.38531 3.67544 1.40809C3.74267 1.45405 3.80023 1.50951 3.84945 1.57651L14.3166 15.8816Z" fill="white" stroke="white"/>
</svg>
