<svg width="12" height="16" viewBox="0 0 12 16" fill="none" xmlns="http://www.w3.org/2000/svg">
<path d="M1.58867 9.12772L1.59446 9.13548L5.96862 14.9907L10.3428 9.13548L10.3486 9.12772L10.3547 9.1202C11.9731 7.12021 11.7546 3.75299 9.84917 1.98692C7.71022 0.0043811 4.22739 0.00434017 2.08806 1.98692L1.58867 9.12772ZM1.58867 9.12772L1.58258 9.1202M1.58867 9.12772L1.58258 9.1202M1.58258 9.1202C-0.0358176 7.12022 0.18266 3.75302 2.08804 1.98694L1.58258 9.1202ZM3.55656 5.47816C3.55656 6.798 4.69883 7.80427 6.02673 7.80427C7.35464 7.80427 8.49691 6.798 8.49691 5.47816C8.49691 4.15833 7.35464 3.15206 6.02673 3.15206C4.69883 3.15206 3.55656 4.15832 3.55656 5.47816Z" fill="white" stroke="white"/>
</svg>
